<svg width="195" height="35" viewBox="0 0 195 35" fill="none" xmlns="http://www.w3.org/2000/svg">
<path fill-rule="evenodd" clip-rule="evenodd" d="M10.7482 10.6644C11.1304 10.425 11.4086 10.0481 11.5265 9.60974C11.5858 9.3565 11.5968 9.09417 11.559 8.83677C11.5126 8.26304 11.1966 7.74656 10.7092 7.44804C10.5659 7.35818 10.4137 7.28355 10.2552 7.22532C9.81419 7.06662 9.34807 6.99113 8.88005 7.0026H6.96654H5.98059V14.6144H6.04546V14.6865H8.77627C9.02536 14.6919 9.27453 14.681 9.52221 14.6537C9.9034 14.6209 10.2752 14.5164 10.6184 14.3458C11.1336 14.1064 11.5197 13.6519 11.6757 13.1012C11.7538 12.8401 11.791 12.5682 11.786 12.2955C11.7761 11.5965 11.3736 10.9639 10.7482 10.6644ZM9.85951 9.06604C9.88864 9.20203 9.88864 9.34274 9.85951 9.47873C9.80155 9.66827 9.67069 9.82639 9.49627 9.91762C9.3073 10.0156 9.09889 10.0693 8.88654 10.0748H7.6541V8.39788H8.81519C9.0177 8.39569 9.21923 8.42666 9.41194 8.48959C9.66395 8.55487 9.84504 8.77751 9.85951 9.03984V9.06604ZM9.08113 11.3784H8.43248V11.385H7.64762V13.2846H9.06167C9.26256 13.2824 9.46018 13.2331 9.63897 13.1405C9.85348 13.031 10.0065 12.8282 10.0541 12.5903C10.0768 12.4427 10.0768 12.2924 10.0541 12.1448C10.035 11.8049 9.79796 11.5176 9.47032 11.4374C9.3428 11.4049 9.21245 11.3852 9.08113 11.3784Z" fill="#F7F8FD"/>
<path fill-rule="evenodd" clip-rule="evenodd" d="M10.7416 22.7044C11.1251 22.4678 11.402 22.0894 11.5135 21.6498C11.5779 21.3952 11.5912 21.1301 11.5524 20.8703C11.508 20.4195 11.3028 20.0004 10.9751 19.6912C10.7464 19.4885 10.4794 19.3347 10.1902 19.2392C9.77072 19.1037 9.33335 19.033 8.89294 19.0295H5.96753V26.7265H8.83456C9.05059 26.739 9.26717 26.739 9.48321 26.7265C9.8044 26.6992 10.1195 26.6218 10.4173 26.4972C10.8973 26.3155 11.2898 25.9543 11.5135 25.4884C11.7336 25.0357 11.7997 24.5222 11.7016 24.0277C11.6126 23.4556 11.2548 22.9625 10.7416 22.7044ZM10.0346 24.6696C9.98369 24.9376 9.79991 25.1603 9.54807 25.2592C9.38183 25.3315 9.20358 25.3715 9.02266 25.3771H7.64753V23.4446H9.03564C9.19821 23.4456 9.35982 23.4699 9.51564 23.5167C9.80718 23.6073 10.0167 23.8653 10.0475 24.1718C10.0734 24.3169 10.0734 24.4655 10.0475 24.6107L10.0346 24.6696ZM9.44429 22.0101C9.66864 21.9184 9.82877 21.7144 9.86591 21.4729L9.83348 21.4533C9.85294 21.3274 9.85294 21.1992 9.83348 21.0733C9.80405 20.8092 9.61955 20.5893 9.36645 20.5165C9.19869 20.4633 9.02328 20.439 8.84753 20.4445H7.64753V22.1411H8.84104C9.04899 22.1405 9.2545 22.0959 9.44429 22.0101Z" fill="#F7F8FD"/>
<path fill-rule="evenodd" clip-rule="evenodd" d="M20.0108 22.6586V22.6586L20.0043 22.7634C20.0075 22.8026 20.0075 22.8421 20.0043 22.8813C20.0151 23.2944 19.9803 23.7075 19.9005 24.1128C19.8155 24.5177 19.6735 24.9081 19.4789 25.2723C19.105 25.954 18.4806 26.4599 17.7405 26.6806C17.3919 26.7903 17.0288 26.8456 16.6637 26.8444C16.312 26.8445 15.9621 26.7915 15.6259 26.6872C14.7019 26.4103 13.9599 25.712 13.6216 24.8006C13.45 24.3488 13.36 23.8696 13.3556 23.3857C13.333 22.9821 13.333 22.5775 13.3556 22.1738C13.4088 21.587 13.5834 21.0179 13.8681 20.5034C14.2718 19.7739 14.9581 19.247 15.7621 19.0492C16.415 18.8773 17.1025 18.8932 17.747 19.095C18.6068 19.3555 19.3048 19.9931 19.6475 20.831C19.8272 21.2467 19.939 21.6892 19.9783 22.1411C20.0108 22.3179 20.0108 22.4948 20.0108 22.6586ZM18.227 24.0932C18.3036 23.7095 18.3384 23.3185 18.3308 22.9271C18.3514 22.5864 18.3427 22.2445 18.3048 21.9053C18.2514 21.5653 18.13 21.2399 17.9481 20.9489C17.7563 20.6447 17.4489 20.4338 17.0983 20.3659C16.9496 20.3496 16.7995 20.3496 16.6508 20.3659H16.6118C16.1483 20.377 15.7215 20.6233 15.4767 21.0209C15.2769 21.313 15.152 21.6506 15.1135 22.0035C15.0194 22.6046 15.0194 23.2169 15.1135 23.818C15.1517 24.1537 15.2648 24.4762 15.4443 24.7613C15.6327 25.0854 15.9406 25.3209 16.3005 25.4164C16.5146 25.4594 16.735 25.4594 16.9491 25.4164C17.3144 25.377 17.6476 25.1875 17.8702 24.8923C18.0463 24.6559 18.1681 24.3829 18.227 24.0932Z" fill="#F7F8FD"/>
<path fill-rule="evenodd" clip-rule="evenodd" d="M27.3146 8.90888C27.5153 9.42883 27.6187 9.98191 27.6194 10.54L27.6519 10.8479C27.6661 11.3195 27.6182 11.7909 27.5092 12.2497C27.4237 12.5955 27.2928 12.9281 27.12 13.2388C26.7608 13.9 26.1604 14.3935 25.4465 14.6145C25.0864 14.7342 24.7099 14.7961 24.3308 14.7979C23.9489 14.7971 23.5698 14.7329 23.2086 14.6079C22.3169 14.3321 21.5996 13.6585 21.2627 12.7803C21.0525 12.2583 20.9467 11.6995 20.9513 11.1361V10.8937V10.3107C20.972 9.57513 21.1967 8.8602 21.6 8.24727C22.0666 7.54412 22.8024 7.06931 23.6302 6.93715C24.2321 6.82396 24.8525 6.86678 25.4335 7.06161C26.3047 7.35861 26.9962 8.03766 27.3146 8.90888ZM25.7059 12.4462C25.814 12.1739 25.8817 11.8869 25.907 11.5946V11.5684C25.9459 11.0648 25.9459 10.5589 25.907 10.0552C25.8775 9.74955 25.7986 9.45081 25.6735 9.1709C25.5208 8.83488 25.2471 8.5702 24.9081 8.43068C24.6849 8.35446 24.4491 8.3233 24.214 8.33898C23.7918 8.35468 23.3999 8.56464 23.1502 8.90888C22.9782 9.1501 22.8568 9.42428 22.7935 9.7146C22.7201 10.0881 22.6789 10.4672 22.6702 10.8479C22.6735 10.9002 22.6735 10.9527 22.6702 11.0051V11.4767C22.6899 11.7917 22.76 12.1014 22.8778 12.3938C23.0857 13.0001 23.6567 13.4021 24.2919 13.3895C24.9182 13.4267 25.494 13.0426 25.7059 12.4462Z" fill="#F7F8FD"/>
<path d="M21.1394 20.4379H23.4681V26.7265H25.1481V20.4313H27.5026V19.0426H21.1394V20.4379Z" fill="#F7F8FD"/>
<path d="M17.014 14.6013H17.0854V6.9895H15.4183V14.6668H17.014V14.6013Z" fill="#F7F8FD"/>
<path fill-rule="evenodd" clip-rule="evenodd" d="M0 33.7356V0H33.4832V33.7356H0ZM1.79027 1.80142V31.9342H31.6995V1.80142H1.79027Z" fill="#F7F8FD"/>
<path fill-rule="evenodd" clip-rule="evenodd" d="M53.8768 19.5928C53.8768 21.7349 52.4757 23.8114 48.8303 23.8114H42.5125V8.61401H48.4735C52.1773 8.61401 53.4746 10.5792 53.4746 12.5968C53.5069 14.1864 52.419 15.5762 50.88 15.9114C52.6886 16.14 54.0046 17.7567 53.8768 19.5928ZM45.2497 10.7102V15.0664H48C50.1211 15.0664 50.5946 13.979 50.5946 12.9243C50.5946 11.8697 49.946 10.743 48 10.743L45.2497 10.7102ZM48.493 17.0708C50.2833 17.0708 51.0876 18.0272 51.0876 19.3374H51.0746C51.0746 20.6213 50.3351 21.7087 48.3243 21.7087H45.2497V17.0708H48.493Z" fill="#F7F8FD"/>
<path fill-rule="evenodd" clip-rule="evenodd" d="M58.5341 8.65991H55.7838V11.3326H58.5341V8.65991ZM58.4303 13.1012H55.8876V23.8115H58.4303V13.1012Z" fill="#F7F8FD"/>
<path fill-rule="evenodd" clip-rule="evenodd" d="M65.4033 12.8523C62.3547 12.8523 60.2141 14.8633 60.2141 18.44C60.2141 22.0297 62.3547 24.0669 65.4033 24.0669C68.4519 24.0669 70.5925 22.0166 70.5925 18.44C70.5925 14.8633 68.4519 12.8523 65.4033 12.8523ZM65.4033 14.7978C67.0444 14.7978 67.9979 15.9966 67.9979 18.44H67.9914C67.9914 20.8768 67.0249 22.1214 65.4033 22.1214C63.7817 22.1214 62.8087 20.8833 62.8087 18.44C62.8087 15.9966 63.7622 14.7978 65.4033 14.7978Z" fill="#F7F8FD"/>
<path fill-rule="evenodd" clip-rule="evenodd" d="M74.7827 23.8115L75.0357 22.0756C75.6412 23.3448 76.9371 24.128 78.3308 24.0669C80.9838 24.0669 82.6963 21.7808 82.6963 18.4596C82.6963 15.1385 81.0292 12.8523 78.4346 12.8523C77.0757 12.8069 75.8128 13.5569 75.1914 14.7782V8.29309H72.6487V23.8115H74.7827ZM77.5395 14.8175C79.1741 14.8175 80.0627 16.2324 80.0627 18.4596C80.0627 20.7261 79.0638 22.0952 77.5395 22.0952C76.0152 22.0952 75.1265 20.7851 75.1265 18.8199V18.0928C75.1265 16.0818 76.0346 14.8175 77.5395 14.8175Z" fill="#F7F8FD"/>
<path fill-rule="evenodd" clip-rule="evenodd" d="M89.1113 12.8523C86.0627 12.8523 83.9221 14.8633 83.9221 18.44C83.9221 22.0297 86.0627 24.0669 89.1113 24.0669C92.16 24.0669 94.3005 22.0166 94.3005 18.44C94.3005 14.8633 92.16 12.8523 89.1113 12.8523ZM89.1113 14.7978C90.7524 14.7978 91.7059 15.9966 91.7059 18.44H91.6994C91.6994 20.8768 90.7329 22.1214 89.1113 22.1214C87.4897 22.1214 86.5167 20.8833 86.5167 18.44C86.5167 15.9966 87.4702 14.7978 89.1113 14.7978Z" fill="#F7F8FD"/>
<path d="M94.8389 13.1012H96.7459V10.4089L99.2886 9.38696V13.1012H101.883V14.9615H99.2886V20.0776C99.2886 21.237 99.7751 21.7676 100.832 21.7676C101.182 21.7734 101.531 21.7316 101.87 21.6431V23.8048C101.302 23.932 100.721 23.9957 100.138 23.9948C97.5956 23.9948 96.7459 22.6454 96.7459 20.4837V14.9681H94.8389V13.1012Z" fill="#F7F8FD"/>
<path fill-rule="evenodd" clip-rule="evenodd" d="M111.516 19.809H117.405L118.735 23.8114H121.511L115.913 8.61401H112.949L107.351 23.8114H110.153L111.516 19.809ZM114.895 12.5444L116.659 17.6866H112.216L113.968 12.5444C114.157 12.0156 114.305 11.4723 114.409 10.9198H114.454C114.558 11.4723 114.705 12.0156 114.895 12.5444Z" fill="#F7F8FD"/>
<path d="M122.964 13.1012H125.384V15.1777C125.934 13.7128 127.349 12.7663 128.899 12.826C131.209 12.826 132.422 14.2999 132.422 17.1691V23.8114H129.827V17.4311C129.827 15.7411 129.178 14.9091 127.881 14.9091C126.402 14.9091 125.507 16.1013 125.507 18.1386V23.8114H122.964L122.964 13.1012Z" fill="#F7F8FD"/>
<path fill-rule="evenodd" clip-rule="evenodd" d="M135.431 18.4793C134.601 18.9915 134.106 19.914 134.134 20.8964C134.134 22.8027 135.568 24.0669 137.786 24.0669C139.505 24.0669 140.835 23.2809 141.347 21.9707C141.365 22.5873 141.422 23.202 141.516 23.8115H144.058C143.81 22.723 143.704 21.6066 143.741 20.4903V17.3002C143.741 14.2017 142.34 12.8523 139.2 12.8523C136.463 12.8523 134.685 14.2672 134.517 16.5534H137.111C137.108 16.015 137.333 15.5008 137.73 15.1413C138.127 14.7818 138.657 14.6114 139.187 14.6734C140.517 14.6734 141.133 15.3546 141.133 16.9595V17.2412L138.882 17.5163C137.682 17.6128 136.511 17.9396 135.431 18.4793ZM141.191 18.7675V19.4226C141.258 20.1642 141.009 20.8995 140.506 21.4445C140.004 21.9895 139.295 22.2928 138.558 22.2786C137.41 22.2786 136.761 21.7284 136.761 20.8047C136.761 19.8811 137.397 19.3701 138.791 19.1343L141.191 18.7675Z" fill="#F7F8FD"/>
<path d="M148.683 23.8115H146.141V8.29309H148.683V23.8115Z" fill="#F7F8FD"/>
<path d="M150.649 28.0038V25.9928C150.972 26.0321 151.296 26.0539 151.622 26.0583C152.69 26.1503 153.653 25.4074 153.847 24.342L154.061 23.687L149.929 13.1012H152.724L155.027 20.1103C155.166 20.5203 155.273 20.9409 155.345 21.3681H155.39C155.462 20.9407 155.568 20.52 155.708 20.1103L157.81 13.1012H160.463L156.474 24.401C155.52 27.1391 154.1 28.1021 151.836 28.1021C151.438 28.1065 151.041 28.0736 150.649 28.0038Z" fill="#F7F8FD"/>
<path d="M161.053 13.1012H162.96V10.4089L165.503 9.38696V13.1012H168.097V14.9615H165.503V20.0776C165.503 21.237 165.989 21.7676 167.046 21.7676C167.396 21.7734 167.746 21.7316 168.084 21.6431V23.8048C167.513 23.9319 166.931 23.9956 166.346 23.9948C163.803 23.9948 162.96 22.6454 162.96 20.4837V14.9681H161.053L161.053 13.1012Z" fill="#F7F8FD"/>
<path fill-rule="evenodd" clip-rule="evenodd" d="M172.255 8.65991H169.498V11.3326H172.255V8.65991ZM172.171 13.1078H169.628V23.8115H172.171V13.1078Z" fill="#F7F8FD"/>
<path d="M174.026 18.4596C174.026 14.9681 176.017 12.8523 179.215 12.8523C181.842 12.8523 183.561 14.2672 183.879 16.7041L181.395 17.1102C181.226 15.656 180.402 14.8633 179.15 14.8633C177.58 14.8633 176.607 16.1735 176.607 18.3941C176.607 20.7065 177.561 22.0297 179.202 22.0297C180.499 22.0297 181.258 21.2436 181.485 19.7435L183.885 20.2348C183.503 22.6127 181.719 24.0669 179.202 24.0669C176.063 24.0669 174.026 21.8594 174.026 18.4596Z" fill="#F7F8FD"/>
<path d="M184.865 20.962L186.752 20.1104C187.192 21.4264 188.455 22.277 189.827 22.1804C191.124 22.1804 191.773 21.6891 191.773 20.8703C191.773 20.0514 191.325 19.6519 190.158 19.5012L188.549 19.285C186.344 19.0099 185.306 17.8308 185.306 16.0949C185.306 14.1297 186.921 12.8196 189.606 12.8196C191.896 12.8196 193.615 13.8677 194.147 15.5381L192.389 16.501C191.901 15.3637 190.775 14.642 189.548 14.68C188.342 14.68 187.661 15.1057 187.661 15.9442C187.661 16.6713 188.147 17.0971 189.269 17.2543L191.053 17.5098C193.232 17.7915 194.102 18.9051 194.102 20.6803C194.102 22.7765 192.493 24.0604 189.736 24.0604C187.304 24.067 185.514 22.973 184.865 20.962Z" fill="#F7F8FD"/>
</svg>
